<svg xmlns="http://www.w3.org/2000/svg" viewBox="0 0 100 100" fill="none">
<circle cx="50" cy="50" r="38" fill="none" stroke="#d6d6da" stroke-width="6"></circle><circle cx="50" cy="50" r="38" fill="none" stroke="#1c1c1e" stroke-width="6" stroke-linecap="round" stroke-dasharray="64 238.8" transform="rotate(-90 50 50)"></circle><circle cx="50" cy="50" r="38" fill="none" stroke="#1c1c1e" stroke-width="6" stroke-linecap="round" stroke-dasharray="86 238.8" stroke-dashoffset="-72" transform="rotate(-90 50 50)"></circle><circle cx="50" cy="50" r="38" fill="none" stroke="#1c1c1e" stroke-width="6" stroke-linecap="round" stroke-dasharray="64 238.8" stroke-dashoffset="-166" transform="rotate(-90 50 50)"></circle><circle cx="50" cy="50" r="14.5" fill="none" stroke="#1c1c1e" stroke-width="2"></circle><path d="M55.72,53.30L50.00,56.60L44.28,53.30L44.28,46.70L50.00,43.40L55.72,46.70Z" fill="none" stroke="#1c1c1e" stroke-width="1.7" stroke-linejoin="round"></path><line x1="55.72" y1="53.30" x2="55.79" y2="61.86" stroke="#1c1c1e" stroke-width="1.7" stroke-linecap="round"></line><line x1="50.00" y1="56.60" x2="42.62" y2="60.94" stroke="#1c1c1e" stroke-width="1.7" stroke-linecap="round"></line><line x1="44.28" y1="53.30" x2="36.83" y2="49.08" stroke="#1c1c1e" stroke-width="1.7" stroke-linecap="round"></line><line x1="44.28" y1="46.70" x2="44.21" y2="38.14" stroke="#1c1c1e" stroke-width="1.7" stroke-linecap="round"></line><line x1="50.00" y1="43.40" x2="57.38" y2="39.06" stroke="#1c1c1e" stroke-width="1.7" stroke-linecap="round"></line><line x1="55.72" y1="46.70" x2="63.17" y2="50.92" stroke="#1c1c1e" stroke-width="1.7" stroke-linecap="round"></line>
</svg>